<svg width="255" height="82" viewBox="0 0 255 82" fill="none" xmlns="http://www.w3.org/2000/svg">
<path d="M51.4789 26.5258C47.9668 23.1026 43.1269 21.8836 40.6492 21.877C35.0318 21.8638 26.94 26.0118 25.7703 34.611C25.5792 36.0179 26.9103 37.1513 28.2677 36.7295L50.6915 29.7546C52.0885 29.3197 52.5267 27.5472 51.4789 26.5258Z" stroke="black" stroke-width="0.223368" stroke-miterlimit="10"/>
<path d="M64.7355 31.4752C64.5082 29.4061 64.0502 27.5182 63.4111 25.8017C59.0423 14.0659 46.2028 10.2935 40.6677 10.2803C30.4442 10.2573 15.16 18.7609 16.4351 36.4568C16.5208 37.666 16.725 38.9278 17.0281 40.2259L0.291016 45.4316C0.620487 48.1893 1.22342 50.8613 2.08004 53.4213L19.7529 47.9257C19.7628 47.9487 19.7726 47.9718 19.7825 47.9949C20.9258 50.4692 22.2997 52.9402 23.8054 55.2926C29.2911 63.8622 36.5361 70.8634 40.895 70.8634C46.2522 70.8634 57.1709 58.0536 62.225 45.8368C62.6961 44.7002 61.622 43.5305 60.4491 43.8962L53.4314 46.0773C53.0657 46.1894 52.7593 46.4431 52.5814 46.7824C49.1483 53.2928 43.6758 59.2628 40.7962 59.2628C38.6316 59.2628 35.3171 56.4755 32.3387 52.6371C30.6616 50.4791 29.0934 47.985 27.8974 45.4711C27.8875 45.4481 27.8743 45.425 27.8644 45.4019L55.6323 36.7665L62.7126 34.5656C64.0404 34.1538 64.8904 32.8557 64.7388 31.4752H64.7355ZM50.6935 29.7554L28.2697 36.7302C26.9123 37.152 25.5845 36.0186 25.7723 34.6118C26.9419 26.0126 35.0337 21.8645 40.6512 21.8777C43.1255 21.8843 47.9688 23.1033 51.4809 26.5265C52.5286 27.5479 52.0904 29.3205 50.6935 29.7554Z" fill="white"/>
<path d="M25.7717 34.611C26.9414 26.0118 35.0332 21.8638 40.6506 21.877C43.125 21.8836 47.9682 23.1026 51.4803 26.5258C52.5281 27.5472 52.0899 29.3197 50.6929 29.7546L28.2691 36.7295C26.9117 37.1513 25.5839 36.0179 25.7717 34.611Z" fill="#237642"/>
<path d="M81.1388 40.571C81.1388 62.9784 62.9751 81.1421 40.5678 81.1421C22.6511 81.1421 7.44934 69.5283 2.07567 53.4204L19.7485 47.9249C19.7584 47.9479 19.7683 47.971 19.7781 47.994C20.9214 50.4684 22.2953 52.9394 23.801 55.2918C29.2867 63.8614 36.5317 70.8626 40.8906 70.8626C46.2478 70.8626 57.1665 58.0528 62.2206 45.836C62.6917 44.6993 61.6177 43.5297 60.4447 43.8954L53.427 46.0765C53.0613 46.1885 52.7549 46.4422 52.577 46.7816C49.1439 53.2919 43.6714 59.2619 40.7918 59.2619C38.6272 59.2619 35.3127 56.4746 32.3343 52.6363C30.6573 50.4782 29.089 47.9842 27.893 45.4703C27.8831 45.4472 27.87 45.4242 27.8601 45.4011L55.6279 36.7657L62.7082 34.5648C64.036 34.153 64.886 32.8548 64.7345 31.4744C64.5071 29.4053 64.0492 27.5174 63.41 25.8009C59.0412 14.0651 46.2017 10.2927 40.6666 10.2795C30.4431 10.2564 15.159 18.7601 16.434 36.456C16.5197 37.6651 16.7239 38.927 17.0271 40.2251L0.289934 45.4308C0.0988404 43.8394 0 42.2151 0 40.571C0 18.1637 18.1637 0 40.5711 0C62.9784 0 81.1421 18.1637 81.1421 40.571H81.1388Z" fill="#237642"/>
<path d="M95.4335 30.3975C94.4187 30.3975 93.595 30.1075 92.9657 29.5277C92.3364 28.9478 92.0234 28.2229 92.0234 27.3531C92.0234 26.3878 92.3364 25.6135 92.9657 25.0337C93.595 24.4538 94.4154 24.1639 95.4335 24.1639H112.187C113.202 24.1639 114.026 24.4538 114.655 25.0337C115.284 25.6135 115.597 26.3878 115.597 27.3531C115.597 28.2229 115.281 28.9478 114.655 29.5277C114.026 30.1075 113.205 30.3975 112.187 30.3975H95.4335ZM111.535 62.3825C109.116 62.3825 106.939 61.7664 105.008 60.5342C103.074 59.3019 101.548 57.6216 100.438 55.4933C99.3245 53.3649 98.771 50.9729 98.771 48.3141V13.7163C98.771 12.6522 99.1071 11.7823 99.7858 11.1036C100.461 10.4282 101.334 10.0889 102.395 10.0889C103.456 10.0889 104.329 10.4282 105.008 11.1036C105.683 11.7823 106.023 12.6522 106.023 13.7163V48.3141C106.023 50.2481 106.553 51.8691 107.617 53.1738C108.681 54.4785 109.986 55.1308 111.535 55.1308H113.999C114.869 55.1308 115.607 55.4702 116.21 56.1456C116.813 56.8243 117.116 57.6941 117.116 58.755C117.116 59.8159 116.717 60.689 115.92 61.3677C115.123 62.0464 114.095 62.3825 112.836 62.3825H111.531H111.535Z" fill="black"/>
<path d="M140.186 62.6747C136.658 62.6747 133.488 61.7917 130.684 60.0257C127.88 58.2598 125.666 55.8678 124.049 52.8466C122.428 49.8253 121.617 46.4021 121.617 42.5835C121.617 38.765 122.5 35.3319 124.266 32.2843C126.032 29.2367 128.424 26.8348 131.445 25.0689C134.467 23.3029 137.863 22.4199 141.636 22.4199C145.408 22.4199 148.792 23.3029 151.79 25.0689C154.788 26.8348 157.17 29.24 158.933 32.2843C160.699 35.3319 161.582 38.765 161.582 42.5835H158.752C158.752 46.4054 157.941 49.8253 156.32 52.8466C154.699 55.8678 152.489 58.2631 149.685 60.0257C146.881 61.7917 143.712 62.6747 140.183 62.6747H140.186ZM141.636 56.1479C144.1 56.1479 146.301 55.5548 148.235 54.372C150.169 53.1892 151.691 51.5682 152.805 49.5123C153.915 47.4564 154.472 45.1501 154.472 42.5868C154.472 40.0236 153.915 37.6448 152.805 35.5889C151.691 33.533 150.169 31.9153 148.235 30.7292C146.301 29.5464 144.1 28.9533 141.636 28.9533C139.171 28.9533 137.03 29.5464 135.073 30.7292C133.116 31.9153 131.567 33.533 130.431 35.5889C129.294 37.6448 128.727 39.9774 128.727 42.5868C128.727 45.1963 129.294 47.4597 130.431 49.5123C131.567 51.5682 133.112 53.1892 135.073 54.372C137.03 55.5581 139.218 56.1479 141.636 56.1479ZM157.882 62.4572C156.818 62.4572 155.935 62.108 155.233 61.4062C154.531 60.7045 154.182 59.8215 154.182 58.7573V47.6607L155.559 39.9708L161.579 42.5803V58.754C161.579 59.8182 161.226 60.7012 160.528 61.4029C159.829 62.1047 158.943 62.4539 157.879 62.4539L157.882 62.4572Z" fill="black"/>
<path d="M197.92 62.3849C197.435 62.3849 196.977 62.3124 196.543 62.1674C196.108 62.0224 195.696 61.7094 195.31 61.2251L182.616 45.9937L180.006 43.381L167.384 28.4395C166.755 27.6652 166.416 26.8316 166.37 25.9388C166.32 25.0459 166.561 24.2815 167.094 23.6555C167.625 23.0263 168.426 22.7133 169.486 22.7133C170.646 22.7133 171.565 23.1251 172.244 23.9455L184.645 38.742L186.53 40.4816L200.167 56.8003C200.892 57.6701 201.241 58.53 201.218 59.3768C201.191 60.2235 200.878 60.9352 200.275 61.5151C199.669 62.0949 198.885 62.3849 197.916 62.3849H197.92ZM170.211 62.3849C169.243 62.3849 168.481 62.0817 167.928 61.4788C167.371 60.8759 167.094 60.1379 167.094 59.2681C167.094 58.3983 167.434 57.5285 168.109 56.6586L180.438 41.2098L184.355 46.7218L172.824 61.2284C172.099 62.0027 171.229 62.3881 170.215 62.3881L170.211 62.3849ZM188.128 43.7434L183.123 39.4636L194.8 23.9422C195.185 23.4579 195.597 23.1317 196.032 22.9636C196.467 22.7956 196.951 22.71 197.482 22.71C198.546 22.71 199.343 23.0361 199.874 23.6885C200.404 24.3408 200.658 25.1283 200.635 26.0442C200.608 26.9634 200.259 27.8563 199.584 28.7294L188.125 43.7434H188.128Z" fill="black"/>
<path d="M235.781 62.3849C235.297 62.3849 234.839 62.3124 234.404 62.1674C233.969 62.0224 233.557 61.7094 233.172 61.2251L220.477 45.9937L217.868 43.381L205.246 28.4395C204.616 27.6652 204.277 26.8316 204.231 25.9388C204.182 25.0459 204.422 24.2815 204.956 23.6555C205.486 23.0263 206.287 22.7133 207.348 22.7133C208.507 22.7133 209.427 23.1251 210.105 23.9455L222.507 38.742L224.391 40.4816L238.028 56.8003C238.753 57.6701 239.102 58.53 239.079 59.3768C239.053 60.2235 238.74 60.9352 238.137 61.5151C237.531 62.0949 236.746 62.3849 235.778 62.3849H235.781ZM208.073 62.3849C207.104 62.3849 206.343 62.0817 205.789 61.4788C205.233 60.8759 204.956 60.1379 204.956 59.2681C204.956 58.3983 205.295 57.5285 205.971 56.6586L218.299 41.2098L222.217 46.7218L210.685 61.2284C209.96 62.0027 209.091 62.3881 208.076 62.3881L208.073 62.3849ZM225.989 43.7434L220.985 39.4636L232.661 23.9422C233.046 23.4579 233.458 23.1317 233.893 22.9636C234.328 22.7956 234.812 22.71 235.343 22.71C236.407 22.71 237.204 23.0361 237.735 23.6885C238.265 24.3408 238.519 25.1283 238.496 26.0442C238.47 26.9634 238.12 27.8563 237.445 28.7294L225.986 43.7434H225.989Z" fill="black"/>
<path d="M250.213 16.2531C248.908 16.2531 247.781 15.782 246.839 14.8397C245.897 13.8974 245.426 12.7739 245.426 11.4659C245.426 10.1579 245.897 9.03443 246.839 8.09214C247.781 7.14986 248.905 6.67871 250.213 6.67871C251.521 6.67871 252.644 7.14986 253.587 8.09214C254.529 9.03443 255 10.1579 255 11.4659C255 12.7739 254.529 13.8974 253.587 14.8397C252.644 15.782 251.521 16.2531 250.213 16.2531ZM250.213 62.3824C249.149 62.3824 248.266 62.0331 247.564 61.3313C246.862 60.6296 246.513 59.7499 246.513 58.6824V26.4041C246.513 25.2938 246.862 24.3977 247.564 23.719C248.266 23.0435 249.149 22.7042 250.213 22.7042C251.277 22.7042 252.219 23.0435 252.898 23.719C253.574 24.3977 253.913 25.2905 253.913 26.4041V58.6824C253.913 59.7466 253.574 60.6296 252.898 61.3313C252.219 62.0331 251.327 62.3824 250.213 62.3824Z" fill="black"/>
</svg>
