<svg width="25" height="24" viewBox="0 0 25 24" fill="none" xmlns="http://www.w3.org/2000/svg">
<path d="M16.01 2.83008H8.99C6.5 2.83008 5.95 4.07008 5.63 5.59008L4.5 11.0001H20.5L19.37 5.59008C19.05 4.07008 18.5 2.83008 16.01 2.83008Z" fill="white" stroke="#237642" stroke-width="1.8" stroke-linecap="round" stroke-linejoin="round"/>
<path d="M22.4888 19.82C22.5988 20.99 21.6588 22 20.4588 22H18.5788C17.4988 22 17.3488 21.54 17.1588 20.97L16.9588 20.37C16.6788 19.55 16.4988 19 15.0588 19H9.93876C8.49876 19 8.28876 19.62 8.03876 20.37L7.83876 20.97C7.64876 21.54 7.49876 22 6.41876 22H4.53876C3.33876 22 2.39876 20.99 2.50876 19.82L3.06876 13.73C3.20876 12.23 3.49876 11 6.11876 11H18.8788C21.4988 11 21.7888 12.23 21.9288 13.73L22.4888 19.82Z" fill="#237642" stroke="#237642" stroke-width="1.8" stroke-linecap="round" stroke-linejoin="round"/>
<path d="M4.5 8H3.5" stroke="#237642" stroke-width="1.8" stroke-linecap="round" stroke-linejoin="round"/>
<path d="M21.5 8H20.5" stroke="#237642" stroke-width="1.8" stroke-linecap="round" stroke-linejoin="round"/>
<path d="M12.5 3V5" stroke="#237642" stroke-width="1.8" stroke-linecap="round" stroke-linejoin="round"/>
<path d="M11 5H14" stroke="#237642" stroke-width="1.8" stroke-linecap="round" stroke-linejoin="round"/>
<path d="M6.5 15H9.5" stroke="white" stroke-width="1.8" stroke-linecap="round" stroke-linejoin="round"/>
<path d="M15.5 15H18.5" stroke="white" stroke-width="1.8" stroke-linecap="round" stroke-linejoin="round"/>
</svg>
