<svg width="36" height="36" viewBox="0 0 36 36" fill="none" xmlns="http://www.w3.org/2000/svg">
<circle cx="18" cy="18" r="18" fill="#E6F2ED"/>
<path d="M19.3005 25.362C21.2614 23.6362 24.75 20.1105 24.75 16.875C24.75 15.0848 24.0388 13.3679 22.773 12.102C21.5071 10.8362 19.7902 10.125 18 10.125C16.2098 10.125 14.4929 10.8362 13.227 12.102C11.9612 13.3679 11.25 15.0848 11.25 16.875C11.25 20.1105 14.7375 23.6362 16.6995 25.362C17.0574 25.6814 17.5203 25.858 18 25.858C18.4797 25.858 18.9426 25.6814 19.3005 25.362ZM15.75 16.875C15.75 16.2783 15.9871 15.706 16.409 15.284C16.831 14.8621 17.4033 14.625 18 14.625C18.5967 14.625 19.169 14.8621 19.591 15.284C20.0129 15.706 20.25 16.2783 20.25 16.875C20.25 17.4717 20.0129 18.044 19.591 18.466C19.169 18.8879 18.5967 19.125 18 19.125C17.4033 19.125 16.831 18.8879 16.409 18.466C15.9871 18.044 15.75 17.4717 15.75 16.875Z" fill="#237642"/>
</svg>
