<svg width="25" height="24" viewBox="0 0 25 24" fill="none" xmlns="http://www.w3.org/2000/svg">
<path d="M20.5004 20.0001L16.4504 15.9501M16.4504 15.9501C17.1004 15.3001 17.616 14.5284 17.9678 13.679C18.3196 12.8297 18.5007 11.9194 18.5007 11.0001C18.5007 10.0808 18.3196 9.17051 17.9678 8.32119C17.616 7.47187 17.1004 6.70016 16.4504 6.05011C15.8003 5.40007 15.0286 4.88443 14.1793 4.53263C13.33 4.18083 12.4197 3.99976 11.5004 3.99976C10.5811 3.99976 9.67076 4.18083 8.82144 4.53263C7.97211 4.88443 7.2004 5.40007 6.55036 6.05011C5.23754 7.36293 4.5 9.1435 4.5 11.0001C4.5 12.8567 5.23754 14.6373 6.55036 15.9501C7.86318 17.2629 9.64375 18.0005 11.5004 18.0005C13.357 18.0005 15.1375 17.2629 16.4504 15.9501Z" stroke="#868686" stroke-width="1.8" stroke-linecap="round" stroke-linejoin="round"/>
</svg>
