<svg width="268" height="248" viewBox="0 0 268 248" fill="none" xmlns="http://www.w3.org/2000/svg">
<path d="M222.334 186.319H236.527V180.321H222.334V186.319Z" fill="#EBEBEB"/>
<path d="M230.252 193.882H244.445V187.884H230.252V193.882Z" fill="#EBEBEB"/>
<path d="M214.412 193.882H228.605V187.884H214.412V193.882Z" fill="#EBEBEB"/>
<path d="M31.4747 193.882H45.668V187.884H31.4747V193.882Z" fill="#EBEBEB"/>
<path d="M31.4747 32.0312H45.668V26.0334H31.4747V32.0312Z" fill="#EBEBEB"/>
<path d="M23.5567 39.5942H37.75V33.5964H23.5567V39.5942Z" fill="#EBEBEB"/>
<path d="M230.252 32.0366H244.445V26.0388H230.252V32.0366Z" fill="#EBEBEB"/>
<path d="M205.334 97.4072H191.141V103.405H205.334V97.4072Z" fill="#EBEBEB"/>
<path d="M197.416 89.8442H183.223V95.8421H197.416V89.8442Z" fill="#EBEBEB"/>
<path d="M36.7344 41.6204H130.92V173.155H36.7344V41.6204ZM128.106 44.4129H39.5269V170.373H128.106V44.4129Z" fill="#EBEBEB"/>
<path d="M85.2183 45.1472H82.4258V171.756H85.2183V45.1472Z" fill="#EBEBEB"/>
<path d="M34.1967 51.1611L133.453 51.1611V47.2698L34.1967 47.2698V51.1611Z" fill="#EBEBEB"/>
<path d="M34.1967 55.5403L133.453 55.5403V51.6489L34.1967 51.6489V55.5403Z" fill="#EBEBEB"/>
<path d="M34.1967 59.9194L133.453 59.9194V56.0281L34.1967 56.0281V59.9194Z" fill="#EBEBEB"/>
<path d="M34.1967 64.2932L133.453 64.2932V60.4019L34.1967 60.4019V64.2932Z" fill="#EBEBEB"/>
<path d="M34.1967 68.6775L133.453 68.6775V64.7861L34.1967 64.7861V68.6775Z" fill="#EBEBEB"/>
<path d="M34.1967 73.0566L133.453 73.0566V69.1653L34.1967 69.1653V73.0566Z" fill="#EBEBEB"/>
<path d="M34.1967 77.4304L133.453 77.4304V73.5391L34.1967 73.5391V77.4304Z" fill="#EBEBEB"/>
<path d="M34.1967 81.8096L133.453 81.8096V77.9182L34.1967 77.9182V81.8096Z" fill="#EBEBEB"/>
<path d="M34.1967 86.1887L133.453 86.1887V82.2974L34.1967 82.2974V86.1887Z" fill="#EBEBEB"/>
<path d="M43.1929 46.4819H42.4961V122.213H43.1929V46.4819Z" fill="#263238"/>
<path d="M41.6055 125.467H44.0871L43.4654 121.902H42.2272L41.6055 125.467Z" fill="#263238"/>
<path d="M40.6773 46.4819H39.9805V141.316H40.6773V46.4819Z" fill="#263238"/>
<path d="M39.0859 143.937H41.5676L40.9459 140.373H39.7077L39.0859 143.937Z" fill="#263238"/>
<path d="M29.8547 49.2153L137.789 49.2153V41.0735L29.8547 41.0735V49.2153Z" fill="#DBDBDB"/>
<path d="M228.45 78.4348C237.961 72.654 240.986 60.257 235.205 50.7454C229.424 41.2338 217.027 38.2095 207.515 43.9903C198.004 49.7712 194.979 62.1682 200.76 71.6798C206.541 81.1914 218.938 84.2157 228.45 78.4348Z" fill="#EBEBEB"/>
<path d="M230.08 77.3448C238.73 71.1815 240.746 59.1727 234.583 50.5225C228.419 41.8722 216.411 39.8562 207.76 46.0195C199.11 52.1828 197.094 64.1916 203.257 72.8419C209.421 81.4921 221.429 83.5081 230.08 77.3448Z" fill="#DBDBDB"/>
<path d="M229.379 76.3505C237.48 70.5743 239.364 59.3246 233.588 51.2237C227.812 43.1227 216.562 41.2381 208.461 47.0144C200.36 52.7906 198.476 64.0403 204.252 72.1412C210.028 80.2422 221.278 82.1267 229.379 76.3505Z" fill="white"/>
<path opacity="0.5" d="M236.524 57.8558C228.317 62.8245 214.837 70.977 207.301 75.4473C205.17 73.6507 203.484 71.385 202.375 68.8277L227.299 45.7261C229.628 46.9534 231.66 48.6749 233.253 50.7702C234.847 52.8655 235.963 55.2838 236.524 57.8558Z" fill="#EBEBEB"/>
<path opacity="0.5" d="M236.912 62.3047C236.85 64.3091 236.448 66.2883 235.723 68.1578L213.253 78.792C212.274 78.4689 211.325 78.0599 210.418 77.57C217.204 73.6464 229.607 66.5069 236.912 62.3047Z" fill="#EBEBEB"/>
<path d="M219.087 44.9702H218.738V47.6985H219.087V44.9702Z" fill="#C7C7C7"/>
<path d="M210.704 47.1097L210.402 47.2839L211.766 49.6467L212.068 49.4725L210.704 47.1097Z" fill="#C7C7C7"/>
<path d="M204.522 53.1682L204.348 53.47L206.71 54.8341L206.885 54.5324L204.522 53.1682Z" fill="#C7C7C7"/>
<path d="M204.935 61.5005H202.207V61.8489H204.935V61.5005Z" fill="#C7C7C7"/>
<path d="M206.718 68.4981L204.355 69.863L204.53 70.1647L206.892 68.7998L206.718 68.4981Z" fill="#C7C7C7"/>
<path d="M211.777 73.7025L210.414 76.0657L210.716 76.2398L212.079 73.8766L211.777 73.7025Z" fill="#C7C7C7"/>
<path d="M219.087 75.6562H218.738V78.3845H219.087V75.6562Z" fill="#C7C7C7"/>
<path d="M226.048 73.6886L225.746 73.8628L227.11 76.2255L227.412 76.0513L226.048 73.6886Z" fill="#C7C7C7"/>
<path d="M231.112 68.5242L230.938 68.8259L233.3 70.1905L233.474 69.8888L231.112 68.5242Z" fill="#C7C7C7"/>
<path d="M235.615 61.5005H232.887V61.8489H235.615V61.5005Z" fill="#C7C7C7"/>
<path d="M233.296 53.1768L230.934 54.5417L231.108 54.8434L233.47 53.4785L233.296 53.1768Z" fill="#C7C7C7"/>
<path d="M227.117 47.1295L225.754 49.4929L226.056 49.667L227.419 47.3035L227.117 47.1295Z" fill="#C7C7C7"/>
<path d="M219.173 46.2031L219.768 62.8941L218.059 62.8727L218.713 46.1978L219.173 46.2031Z" fill="#C7C7C7"/>
<path d="M229.571 55.8566L218.342 63.0229L217.527 61.5221L229.346 55.4492L229.571 55.8566Z" fill="#A6A6A6"/>
<path d="M219.493 61.6775C219.493 61.7933 219.458 61.9065 219.394 62.0027C219.329 62.0989 219.238 62.1737 219.131 62.2178C219.024 62.2618 218.906 62.2731 218.792 62.2501C218.679 62.2271 218.575 62.171 218.493 62.0887C218.412 62.0065 218.357 61.9019 218.335 61.7882C218.313 61.6745 218.325 61.5569 218.37 61.4502C218.415 61.3435 218.491 61.2527 218.588 61.1891C218.685 61.1256 218.798 61.0922 218.914 61.0933C218.99 61.0933 219.066 61.1084 219.137 61.1379C219.207 61.1673 219.271 61.2104 219.325 61.2647C219.379 61.319 219.421 61.3835 219.45 61.4544C219.479 61.5252 219.493 61.6011 219.493 61.6775Z" fill="#C7C7C7"/>
<path d="M238.59 168.556C236.269 166.289 233.278 163.544 229.735 164.52C226.402 165.442 225.126 169.081 224.526 172.115C223.759 176.023 223.159 179.967 222.537 183.907C221.915 187.847 221.326 191.861 220.752 195.838C220.43 198.082 220.112 200.33 219.798 202.581C219.637 203.7 219.48 204.824 219.326 205.953C219.176 207.025 218.989 208.156 218.93 209.265C218.93 209.619 219.466 209.673 219.546 209.335C219.975 207.459 220.152 205.513 220.425 203.61C220.698 201.708 220.961 199.783 221.261 197.87C221.797 194.07 222.392 190.275 222.96 186.475C223.529 182.674 224.129 178.879 224.735 175.085C225.271 171.869 225.49 167.87 228.342 165.747C229.907 164.584 231.906 164.574 233.675 165.249C235.556 165.967 237.052 167.307 238.499 168.636C238.51 168.649 238.525 168.656 238.541 168.657C238.557 168.658 238.573 168.652 238.585 168.642C238.597 168.631 238.604 168.616 238.605 168.6C238.606 168.584 238.601 168.568 238.59 168.556Z" fill="#263238"/>
<path d="M235.419 166.235C235.419 166.235 230.681 164.531 228.344 167.988C226.007 171.445 228.8 180.241 250.368 185.199C249.736 178.457 247.983 171.868 245.18 165.704C240.554 155.622 232.316 159.439 235.419 166.235Z" fill="#B3E3C4"/>
<path d="M249.13 183.762C248.808 183.159 248.45 182.575 248.058 182.015L246.986 180.353L246.139 179.115C246.139 179.019 246.166 178.911 246.182 178.81C246.182 178.622 246.23 178.434 246.252 178.247C246.305 177.845 246.364 177.443 246.423 177.035C246.482 176.628 246.552 176.237 246.627 175.835C246.678 175.403 246.773 174.977 246.911 174.564C246.938 174.5 246.825 174.468 246.815 174.564C246.769 174.807 246.705 175.045 246.622 175.277L246.477 175.813C246.375 176.221 246.273 176.633 246.182 177.046C246.091 177.459 246.027 177.807 245.962 178.188C245.93 178.375 245.903 178.558 245.877 178.724C245.491 178.188 245.099 177.652 244.697 177.116C243.55 175.604 242.339 174.152 241.085 172.737C241.085 172.737 241.085 172.737 241.085 172.699C241.197 170.432 241.144 168.186 241.621 165.956C241.621 165.897 241.546 165.865 241.53 165.924C241.058 168.02 240.592 170.212 240.726 172.356C240.275 171.852 239.82 171.354 239.359 170.861C238.287 169.735 237.242 168.62 236.143 167.532C236.1 167.489 236.03 167.532 236.073 167.596C237.89 169.553 239.616 171.595 241.294 173.669C239.979 173.648 238.664 173.696 237.354 173.814C235.891 173.921 234.438 174.109 232.986 174.307C232.973 174.307 232.961 174.312 232.952 174.321C232.943 174.33 232.938 174.343 232.938 174.355C232.938 174.368 232.943 174.38 232.952 174.389C232.961 174.399 232.973 174.404 232.986 174.404C234.432 174.198 235.889 174.068 237.349 174.012C238.758 173.953 240.157 174.012 241.562 174.012C242.468 175.143 243.368 176.274 244.242 177.421H244.043C243.711 177.421 243.384 177.421 243.052 177.421C242.398 177.421 241.739 177.48 241.085 177.534C239.745 177.641 238.415 177.84 237.102 178.129C237.089 178.129 237.077 178.134 237.068 178.143C237.059 178.152 237.054 178.164 237.054 178.177C237.054 178.19 237.059 178.202 237.068 178.211C237.077 178.22 237.089 178.225 237.102 178.225C238.426 178.075 239.755 177.952 241.09 177.904C241.723 177.904 242.36 177.904 242.998 177.904H243.99C244.17 177.928 244.353 177.912 244.526 177.855C245.105 178.611 245.689 179.362 246.262 180.117C246.718 180.723 247.174 181.329 247.613 181.945C248.053 182.562 248.476 183.253 248.98 183.837C248.99 183.857 249.007 183.872 249.028 183.879C249.05 183.886 249.073 183.885 249.093 183.875C249.112 183.865 249.128 183.847 249.135 183.826C249.142 183.805 249.14 183.782 249.13 183.762Z" fill="#263238"/>
<path d="M237.48 171.134C236.715 171.037 235.945 171.001 235.175 171.027C234.403 171.027 233.631 171.027 232.865 171.075C232.852 171.075 232.84 171.08 232.831 171.089C232.821 171.098 232.816 171.111 232.816 171.123C232.816 171.136 232.821 171.149 232.831 171.158C232.84 171.167 232.852 171.172 232.865 171.172C233.642 171.113 234.424 171.102 235.207 171.113C235.99 171.123 236.718 171.193 237.469 171.177L237.48 171.134Z" fill="#263238"/>
<path d="M244.253 172.876C244.338 172.137 244.435 171.397 244.59 170.673C244.59 170.66 244.585 170.648 244.576 170.639C244.567 170.63 244.555 170.625 244.542 170.625C244.529 170.625 244.517 170.63 244.508 170.639C244.499 170.648 244.494 170.66 244.494 170.673C244.387 171.402 244.242 172.12 244.135 172.844C244.081 173.201 244.033 173.559 243.99 173.916C243.925 174.255 243.894 174.6 243.899 174.945C243.899 175.009 244.011 175.015 244.028 174.945C244.092 174.607 244.13 174.265 244.14 173.921C244.172 173.573 244.21 173.225 244.253 172.876Z" fill="#263238"/>
<path d="M242.811 164.713C242.623 165.431 242.436 166.155 242.275 166.884C242.21 167.253 242.151 167.629 242.103 167.999C242.037 168.352 242.012 168.711 242.028 169.071C242.028 169.071 242.076 169.071 242.087 169.071C242.171 168.731 242.228 168.385 242.259 168.036C242.305 167.679 242.359 167.321 242.419 166.964C242.553 166.214 242.687 165.469 242.875 164.729C242.939 164.686 242.848 164.654 242.811 164.713Z" fill="#263238"/>
<path d="M214.743 208.461C214.626 207.1 214.492 205.744 214.352 204.387C214.066 201.704 213.741 199.024 213.377 196.347C213.018 193.667 212.674 190.987 212.246 188.345C212.089 187.11 211.814 185.893 211.426 184.711C211.286 184.203 211.031 183.735 210.682 183.341C210.332 182.947 209.897 182.638 209.41 182.438C206.875 181.559 205.16 184.191 204.136 186.056C204.104 186.11 204.19 186.153 204.222 186.099C204.838 185.22 206.532 182.744 208.456 182.856C209.753 182.937 210.788 183.853 211.41 187.085C212.959 195.125 214.358 211.463 214.518 212.529C214.604 213.097 215.006 213.065 215.006 212.465C215.017 211.125 214.861 209.79 214.743 208.461Z" fill="#263238"/>
<path d="M204.824 185.049C204.824 185.049 207.043 177.218 202.144 181.13C193.981 187.648 193.691 201.831 193.691 201.831C193.691 201.831 208.201 193.405 210.007 187.847C212.687 179.56 204.824 185.049 204.824 185.049Z" fill="#B3E3C4"/>
<path d="M207.566 188.892C206.43 189.122 205.272 189.272 204.125 189.428L202.491 189.658C202.126 189.707 201.751 189.744 201.381 189.787C202.453 188.302 203.552 186.818 204.597 185.301C204.64 185.242 204.549 185.177 204.501 185.226C203.645 186.116 202.836 187.049 202.078 188.024L201.435 186.207C201.188 185.504 200.899 184.808 200.743 184.063C200.743 184.004 200.636 184.03 200.652 184.095C200.85 184.813 200.99 185.542 201.188 186.239C201.386 186.935 201.585 187.622 201.831 188.297C201.295 188.988 200.786 189.696 200.293 190.409C200.041 189.701 199.757 189.015 199.516 188.297C199.511 188.284 199.502 188.274 199.49 188.268C199.478 188.261 199.464 188.26 199.451 188.265C199.439 188.269 199.428 188.278 199.422 188.29C199.416 188.302 199.415 188.316 199.419 188.329C199.682 189.122 199.821 189.937 200.068 190.746C199.73 191.234 199.398 191.722 199.082 192.21C198.497 193.116 197.945 194.037 197.404 194.97C197.362 194.986 197.326 195.016 197.303 195.055C197.28 195.094 197.27 195.14 197.275 195.185C196.359 196.793 195.485 198.401 194.627 200.009C194.621 200.02 194.619 200.033 194.623 200.046C194.626 200.058 194.635 200.069 194.646 200.076C194.658 200.082 194.671 200.084 194.684 200.08C194.696 200.076 194.707 200.068 194.713 200.057C195.576 198.449 196.53 196.894 197.527 195.361C197.683 195.316 197.843 195.285 198.004 195.27L198.503 195.163C198.878 195.083 199.248 194.986 199.623 194.89C200.357 194.707 201.086 194.536 201.837 194.407C201.896 194.407 201.869 194.3 201.804 194.311C200.925 194.482 200.046 194.579 199.157 194.681C198.739 194.729 198.32 194.783 197.908 194.852H197.843C198.379 194.059 198.915 193.271 199.451 192.494C199.987 191.717 200.523 190.972 201.059 190.221C201.563 190.146 202.062 190.017 202.56 189.921L204.249 189.594C205.369 189.369 206.489 189.117 207.615 188.929C207.658 188.978 207.631 188.881 207.566 188.892Z" fill="#263238"/>
<path d="M198.857 189.664L198.664 189.042C198.527 188.611 198.416 188.173 198.332 187.729C198.332 187.664 198.224 187.697 198.235 187.756C198.332 188.2 198.433 188.64 198.535 189.079C198.627 189.523 198.754 189.959 198.916 190.382C198.959 190.484 199.114 190.441 199.082 190.334C199.007 190.109 198.921 189.889 198.857 189.664Z" fill="#263238"/>
<path d="M209.039 187.064C208.38 187.16 207.71 187.209 207.045 187.268C206.381 187.327 205.716 187.418 205.052 187.52C205.014 187.52 205.014 187.579 205.052 187.579C205.722 187.53 206.381 187.477 207.045 187.391C207.71 187.305 208.375 187.203 209.045 187.16C209.114 187.171 209.109 187.064 209.039 187.064Z" fill="#263238"/>
<path d="M225.422 198.545C225.165 192.778 224.801 187.021 224.222 181.275C223.932 178.413 223.611 175.556 223.209 172.699C222.847 169.9 222.294 167.13 221.552 164.407C220.963 162.333 220.18 160.248 218.792 158.565C218.147 157.718 217.296 157.051 216.321 156.625C215.345 156.199 214.277 156.029 213.218 156.131C210.693 156.442 208.662 158.034 206.904 159.76C204.931 161.7 203.152 163.812 201.302 165.887C200.841 166.423 200.38 166.959 199.925 167.468C199.887 167.516 199.957 167.586 199.995 167.537C201.785 165.485 203.639 163.491 205.58 161.588C207.375 159.824 209.219 157.9 211.706 157.171C212.86 156.805 214.095 156.777 215.265 157.091C216.196 157.384 217.034 157.914 217.699 158.629C219.098 160.087 219.88 162.054 220.443 163.962C221.992 169.263 222.549 174.822 223.123 180.294C223.707 185.858 224.104 191.432 224.383 197.017C224.661 202.603 224.881 208.273 225.422 213.848C225.492 214.539 225.578 215.231 225.669 215.917C225.728 216.383 226.446 216.383 226.409 215.917C225.948 210.112 225.685 204.339 225.422 198.545Z" fill="#263238"/>
<path d="M206.586 160.393C206.586 160.393 209.883 154.298 205.991 152.353C202.1 150.407 189.075 164.933 185.27 186.19C185.27 186.19 206.302 176.885 213.447 167.613C220.592 158.34 212.493 156.292 206.586 160.393Z" fill="#B3E3C4"/>
<path d="M209.678 165.351C207.315 165.351 204.956 165.174 202.593 165.19C203.037 164.681 203.477 164.171 203.927 163.668C204.589 162.995 205.205 162.278 205.771 161.524C205.809 161.475 205.734 161.406 205.685 161.443C205.047 161.997 204.45 162.597 203.9 163.239C203.304 163.864 202.714 164.497 202.132 165.136C201.226 166.112 200.341 167.103 199.452 168.1V166.573C199.452 165.769 199.452 164.965 199.478 164.166C199.478 162.558 199.478 160.907 199.602 159.288C199.602 159.224 199.511 159.229 199.505 159.288C199.393 160.896 199.221 162.542 199.141 164.177C199.103 164.975 199.082 165.785 199.076 166.583C199.076 166.996 199.076 167.409 199.076 167.822C199.076 168.047 199.076 168.288 199.076 168.518L198.658 168.985C196.772 171.129 194.976 173.369 193.234 175.636C193.234 175.513 193.234 175.385 193.202 175.261C193.202 175.009 193.148 174.763 193.116 174.511C193.057 173.975 192.982 173.439 192.902 172.903C192.821 172.367 192.746 171.89 192.66 171.386C192.575 170.882 192.425 170.244 192.382 169.665C192.382 169.653 192.377 169.64 192.368 169.631C192.359 169.622 192.346 169.617 192.334 169.617C192.321 169.617 192.308 169.622 192.299 169.631C192.29 169.64 192.285 169.653 192.285 169.665C192.386 170.238 192.452 170.816 192.484 171.397L192.628 172.956C192.677 173.492 192.725 174.002 192.778 174.522C192.778 174.768 192.827 175.02 192.853 175.272C192.853 175.395 192.88 175.519 192.896 175.647C192.908 175.752 192.943 175.852 192.998 175.942L192.098 177.116C190.908 178.697 189.734 180.294 188.565 181.886C188.528 181.934 188.598 182.004 188.635 181.951C189.745 180.509 190.886 179.088 192.044 177.663C192.907 177.7 193.791 177.636 194.654 177.625C195.517 177.614 196.477 177.625 197.393 177.598C197.452 177.598 197.452 177.502 197.393 177.502C196.482 177.502 195.571 177.534 194.66 177.534C193.749 177.534 192.977 177.496 192.146 177.534C193.164 176.294 194.19 175.063 195.223 173.841L196.354 172.506C196.709 172.553 197.068 172.564 197.426 172.538H198.669L201.001 172.506C202.609 172.479 204.217 172.426 205.825 172.426C205.835 172.422 205.845 172.415 205.851 172.406C205.858 172.397 205.862 172.386 205.862 172.375C205.862 172.364 205.858 172.353 205.851 172.343C205.845 172.334 205.835 172.327 205.825 172.324C204.217 172.324 202.609 172.238 201.001 172.195C200.223 172.195 199.446 172.152 198.669 172.142H197.426C197.19 172.142 196.943 172.142 196.707 172.142L199.355 169.001C199.376 168.988 199.393 168.97 199.403 168.947C200.266 167.929 201.129 166.91 201.998 165.903L202.362 165.49C204.812 165.565 207.256 165.404 209.711 165.452C209.743 165.452 209.743 165.351 209.678 165.351Z" fill="#263238"/>
<path d="M208.467 169.531H207.898C207.887 169.531 207.876 169.536 207.868 169.544C207.86 169.552 207.855 169.563 207.855 169.574C207.855 169.586 207.86 169.597 207.868 169.605C207.876 169.613 207.887 169.617 207.898 169.617H208.472C208.536 169.628 208.531 169.531 208.467 169.531Z" fill="#263238"/>
<path d="M207.199 169.537C206.443 169.537 205.682 169.51 204.926 169.489L203.79 169.456C203.434 169.409 203.073 169.409 202.718 169.456C202.68 169.456 202.685 169.515 202.718 169.526C203.07 169.597 203.43 169.623 203.79 169.601H204.926C205.682 169.601 206.437 169.601 207.193 169.601C207.199 169.609 207.207 169.615 207.216 169.618C207.226 169.621 207.236 169.621 207.245 169.618C207.254 169.616 207.263 169.61 207.269 169.602C207.275 169.595 207.279 169.586 207.28 169.576C207.28 169.566 207.278 169.556 207.273 169.548C207.269 169.54 207.261 169.533 207.253 169.528C207.244 169.524 207.234 169.523 207.224 169.524C207.215 169.526 207.206 169.53 207.199 169.537Z" fill="#263238"/>
<path d="M200.585 176.639C199.048 176.383 197.495 176.241 195.938 176.215C195.911 176.215 195.938 176.247 195.938 176.253C197.481 176.398 199.03 176.483 200.563 176.73C200.628 176.741 200.649 176.644 200.585 176.639Z" fill="#263238"/>
<path d="M194.264 169.869L194.216 169.462C194.173 169.162 194.125 168.856 194.077 168.551C193.991 167.977 193.889 167.398 193.776 166.825C193.776 166.771 193.675 166.787 193.68 166.825C193.755 167.421 193.819 168.016 193.873 168.61C193.9 168.904 193.921 169.194 193.948 169.489C193.941 169.77 193.981 170.051 194.066 170.319C194.077 170.338 194.094 170.353 194.113 170.362C194.133 170.371 194.155 170.375 194.176 170.372C194.198 170.369 194.218 170.36 194.235 170.346C194.251 170.332 194.263 170.313 194.269 170.293C194.295 170.152 194.293 170.009 194.264 169.869Z" fill="#263238"/>
<path d="M225.216 152.567C224.46 151.168 223.501 149.313 221.625 149.431C220.071 149.528 219.374 151.114 219.041 152.422C218.018 156.469 217.943 160.741 217.744 164.89C217.326 173.653 216.946 182.433 216.887 191.207C216.887 193.641 216.887 196.074 216.887 198.508C216.914 200.989 216.887 203.487 217.064 205.963C217.064 206.012 217.083 206.058 217.117 206.092C217.151 206.126 217.197 206.146 217.246 206.146C217.294 206.146 217.341 206.126 217.375 206.092C217.409 206.058 217.428 206.012 217.428 205.963C217.428 203.819 217.364 201.718 217.358 199.596C217.353 197.473 217.358 195.452 217.401 193.383C217.466 189.185 217.576 184.99 217.734 180.798C217.889 176.628 218.071 172.463 218.27 168.299C218.361 166.214 218.446 164.134 218.543 162.049C218.639 159.964 218.72 158.013 218.95 156.008C219.079 154.882 219.245 153.757 219.486 152.653C219.604 151.829 219.939 151.052 220.456 150.402C220.818 150.053 221.29 149.843 221.79 149.806C222.291 149.77 222.788 149.911 223.195 150.203C224.053 150.82 224.726 151.66 225.141 152.631C225.163 152.674 225.243 152.626 225.216 152.567Z" fill="#263238"/>
<path d="M224.707 151.897C224.707 151.897 223.157 146.446 226.577 149.169C232.259 153.714 232.473 163.593 232.473 163.593C232.473 163.593 222.364 157.697 221.11 153.848C219.223 148.081 224.707 151.897 224.707 151.897Z" fill="#B3E3C4"/>
<path d="M230.337 159.541C230.245 159.39 230.149 159.246 230.052 159.096C230.063 158.94 230.063 158.785 230.052 158.629C230.052 158.394 230.052 158.158 230.052 157.922C230.052 157.461 230.079 157.005 230.106 156.544C230.102 156.534 230.096 156.524 230.087 156.518C230.077 156.511 230.066 156.507 230.055 156.507C230.044 156.507 230.033 156.511 230.024 156.518C230.015 156.524 230.008 156.534 230.004 156.544C230.004 156.995 229.967 157.45 229.951 157.9C229.951 158.126 229.951 158.351 229.951 158.581C229.951 158.667 229.951 158.769 229.951 158.871C229.554 158.254 229.147 157.643 228.729 157.048C228.605 156.871 228.477 156.7 228.353 156.512C228.292 155.921 228.281 155.326 228.321 154.733C228.321 154.1 228.321 153.462 228.359 152.83C228.359 152.771 228.262 152.771 228.262 152.83C228.262 153.489 228.209 154.148 228.176 154.808C228.14 155.277 228.127 155.747 228.139 156.217C227.163 154.888 226.129 153.607 225.078 152.337C225.046 152.294 224.971 152.337 225.003 152.396C225.652 153.221 226.274 154.063 226.885 154.915C225.695 154.636 224.489 154.475 223.277 154.304C223.218 154.304 223.192 154.39 223.277 154.395C224.553 154.593 225.813 154.931 227.072 155.188H227.099C227.581 155.869 228.064 156.555 228.536 157.241L229.109 158.083H229.055L228.664 158.029C228.385 157.997 228.101 157.975 227.823 157.954C227.238 157.906 226.654 157.874 226.07 157.841C226.011 157.841 226.011 157.938 226.07 157.943C226.643 157.943 227.217 157.997 227.785 158.061L228.691 158.168L229.088 158.217H229.2L230.17 159.648C230.744 160.489 231.242 161.395 231.864 162.21C231.87 162.22 231.881 162.227 231.892 162.229C231.904 162.232 231.916 162.23 231.926 162.223C231.936 162.217 231.943 162.207 231.945 162.195C231.948 162.184 231.946 162.172 231.939 162.162C231.457 161.257 230.921 160.382 230.337 159.541Z" fill="#263238"/>
<path d="M227.802 153.376C227.802 153.167 227.802 152.953 227.802 152.744C227.785 152.297 227.803 151.849 227.856 151.404C227.856 151.334 227.76 151.324 227.76 151.404C227.76 151.849 227.711 152.288 227.69 152.728C227.69 152.948 227.69 153.173 227.69 153.393V153.698C227.671 153.803 227.671 153.91 227.69 154.014C227.69 154.026 227.694 154.037 227.702 154.045C227.71 154.053 227.721 154.057 227.733 154.057C227.744 154.057 227.755 154.053 227.763 154.045C227.771 154.037 227.776 154.026 227.776 154.014C227.792 153.917 227.792 153.817 227.776 153.72L227.802 153.376Z" fill="#263238"/>
<path d="M226.576 155.638C226.2 155.574 225.814 155.553 225.434 155.52C225.053 155.488 224.603 155.451 224.185 155.397C224.172 155.397 224.16 155.402 224.151 155.411C224.142 155.42 224.137 155.433 224.137 155.445C224.137 155.458 224.142 155.471 224.151 155.48C224.16 155.489 224.172 155.494 224.185 155.494C224.984 155.542 225.793 155.687 226.576 155.713C226.608 155.719 226.618 155.644 226.576 155.638Z" fill="#263238"/>
<path d="M225.446 181.704C223.302 180.096 221.415 177.818 218.553 177.706C216.195 177.614 214.539 179.389 213.595 181.366C213.119 182.418 212.732 183.509 212.437 184.625C212.016 186.123 211.616 187.623 211.237 189.128C210.49 192.09 209.857 195.079 209.339 198.095C209.055 199.773 208.803 201.456 208.573 203.144C208.302 204.858 208.137 206.587 208.08 208.322C208.072 208.393 208.093 208.464 208.137 208.52C208.182 208.576 208.247 208.611 208.318 208.619C208.389 208.627 208.461 208.606 208.516 208.562C208.572 208.517 208.608 208.452 208.616 208.381C208.905 206.966 209.023 205.508 209.232 204.093C209.441 202.678 209.661 201.22 209.902 199.805C210.39 196.943 210.974 194.091 211.596 191.261C212.207 188.581 212.807 185.869 213.67 183.264C214.287 181.399 215.278 179.222 217.294 178.547C220.36 177.529 223.147 180.123 225.393 181.811C225.43 181.79 225.5 181.704 225.446 181.704Z" fill="#263238"/>
<path d="M223.249 180.155C223.249 180.155 221.292 174.559 224.123 173.46C228.373 171.815 239.49 184.336 237.313 203.519C237.313 203.519 228.737 198.792 222.381 193.469C216.024 188.147 214.399 181.168 217.208 179.394C220.017 177.62 223.249 180.155 223.249 180.155Z" fill="#B3E3C4"/>
<path d="M236.03 199.392C235.734 198.722 235.388 198.075 234.995 197.457C234.636 196.803 234.266 196.149 233.886 195.501C233.151 194.236 232.417 192.971 231.661 191.749L231.286 191.143C231.286 191.068 231.318 190.993 231.334 190.918L231.463 190.382C231.554 189.969 231.629 189.546 231.704 189.128C231.859 188.308 232.004 187.471 232.24 186.667C232.24 186.608 232.16 186.587 232.144 186.667C231.967 187.487 231.709 188.275 231.468 189.095C231.35 189.492 231.222 189.889 231.114 190.285C231.082 190.425 231.045 190.559 231.007 190.698C230.096 189.203 229.169 187.713 228.166 186.271C228.232 186.072 228.265 185.864 228.263 185.654L228.359 184.818C228.434 184.186 228.509 183.553 228.601 182.926C228.764 181.69 228.989 180.463 229.276 179.249C229.276 179.19 229.196 179.174 229.179 179.249C228.874 180.455 228.542 181.667 228.311 182.889C228.199 183.489 228.091 184.095 228.011 184.7C227.973 185 227.941 185.306 227.909 185.611C227.909 185.697 227.882 185.794 227.872 185.885C227.566 185.451 227.255 185.017 226.934 184.593C225.953 183.301 224.934 182.042 223.911 180.787C223.873 180.739 223.793 180.787 223.83 180.841C225.586 183.088 227.197 185.444 228.654 187.895C228.938 188.345 229.19 188.801 229.49 189.251L229.217 189.219C228.858 189.171 228.493 189.149 228.145 189.117C227.43 189.049 226.707 188.985 225.974 188.924C224.527 188.811 223.074 188.72 221.633 188.57C221.568 188.57 221.552 188.656 221.633 188.661C223.096 188.833 224.548 189.063 226.006 189.272L228.15 189.562C228.693 189.674 229.247 189.732 229.801 189.733C230.373 190.655 230.943 191.579 231.511 192.504C231.383 192.494 231.254 192.494 231.125 192.504H229.056C228.124 192.504 227.196 192.504 226.264 192.504C226.199 192.504 226.21 192.601 226.264 192.601C227.207 192.601 228.145 192.66 229.088 192.708C229.539 192.708 229.983 192.756 230.434 192.789C230.653 192.789 230.879 192.826 231.104 192.837C231.298 192.877 231.499 192.877 231.693 192.837L233.14 195.19C233.584 195.904 234.036 196.619 234.497 197.334C234.925 198.1 235.412 198.831 235.954 199.521C235.976 199.499 236.051 199.472 236.03 199.392Z" fill="#263238"/>
<path d="M231.94 183.902C231.852 184.519 231.723 185.129 231.555 185.729C231.394 186.351 231.217 186.968 231.019 187.573C231.013 187.582 231.01 187.591 231.008 187.601C231.007 187.611 231.008 187.621 231.011 187.63C231.015 187.639 231.02 187.648 231.027 187.655C231.035 187.662 231.043 187.667 231.053 187.67C231.062 187.673 231.072 187.674 231.082 187.672C231.092 187.671 231.101 187.667 231.109 187.661C231.117 187.655 231.124 187.648 231.129 187.639C231.133 187.63 231.136 187.621 231.136 187.611C231.324 187.005 231.496 186.394 231.672 185.783C231.849 185.172 231.914 184.534 232.069 183.923C232.048 183.848 231.946 183.848 231.94 183.902Z" fill="#263238"/>
<path d="M225.625 187.654C225.496 187.54 225.33 187.477 225.159 187.477L224.349 187.364C223.845 187.294 223.341 187.241 222.838 187.182C221.792 187.059 220.742 186.957 219.697 186.828C219.684 186.828 219.672 186.833 219.663 186.842C219.654 186.851 219.648 186.864 219.648 186.876C219.648 186.889 219.654 186.901 219.663 186.91C219.672 186.92 219.684 186.925 219.697 186.925C220.683 187.043 221.664 187.193 222.65 187.321C223.132 187.386 223.615 187.455 224.103 187.509L224.799 187.589C225.071 187.59 225.341 187.635 225.598 187.723C225.606 187.722 225.613 187.719 225.619 187.714C225.624 187.71 225.629 187.703 225.632 187.696C225.634 187.689 225.635 187.681 225.634 187.674C225.633 187.666 225.63 187.659 225.625 187.654Z" fill="#263238"/>
<path d="M231.925 196.085C231.432 196.047 230.933 196.031 230.435 196.015H229.684H229.325C229.169 196.025 229.013 196.016 228.859 195.989C228.789 195.989 228.784 196.101 228.859 196.085C229.005 196.069 229.152 196.069 229.299 196.085H229.69L230.44 196.133C230.933 196.16 231.432 196.192 231.925 196.192C231.978 196.176 231.984 196.09 231.925 196.085Z" fill="#263238"/>
<path d="M234.951 193.941L235.112 193.099L235.418 191.438C235.418 191.379 235.332 191.363 235.321 191.438C235.198 191.974 235.075 192.51 234.957 193.046C234.892 193.314 234.833 193.582 234.78 193.85L234.699 194.225C234.659 194.353 234.644 194.488 234.657 194.622C234.657 194.67 234.732 194.702 234.764 194.654C234.869 194.429 234.932 194.188 234.951 193.941Z" fill="#263238"/>
<path d="M205.867 206.146L206.468 212.948L208.499 235.91H226.482L229.017 212.948L229.767 206.146H205.867Z" fill="#455A64"/>
<path d="M205.867 206.146L206.468 212.948H229.017L229.767 206.146H205.867Z" fill="#263238"/>
<path d="M204.09 209.812H231.555V204.296H204.09V209.812Z" fill="#455A64"/>
<path d="M16.4375 235.84L45.8264 235.711L75.2206 235.663L133.998 235.572L192.776 235.663L222.17 235.706L251.559 235.84L222.17 235.969L192.776 236.017L133.998 236.108L75.2206 236.017L45.8264 235.969L16.4375 235.84Z" fill="#263238"/>
<path d="M107.816 192.96V193.035C107.816 193.035 107.816 193.067 107.816 193.089C107.816 193.11 107.816 193.174 107.843 193.233V193.33C107.86 193.399 107.873 193.469 107.881 193.539C107.881 193.587 107.881 193.635 107.908 193.689C107.934 193.743 107.945 193.914 107.972 194.043C107.999 194.171 108.052 194.477 108.095 194.734L108.336 196.042C108.363 196.181 108.39 196.331 108.417 196.487C108.444 196.642 108.492 196.905 108.535 197.125C108.578 197.345 108.62 197.618 108.669 197.881C108.701 198.063 108.738 198.25 108.77 198.443C108.872 199.017 108.98 199.628 109.103 200.282C109.105 200.298 109.105 200.314 109.103 200.33C109.231 201.059 109.371 201.842 109.521 202.662C109.558 202.876 109.601 203.09 109.644 203.305C109.687 203.519 109.73 203.755 109.767 203.98C109.767 204.12 109.816 204.264 109.848 204.409C110.052 205.549 110.271 206.757 110.507 208.032C110.588 208.461 110.663 208.895 110.743 209.335C110.898 210.192 111.059 211.072 111.225 211.977C111.268 212.186 111.306 212.395 111.338 212.61C111.577 213.921 111.826 215.286 112.083 216.705C112.115 216.85 112.137 216.994 112.163 217.139C112.287 217.804 112.41 218.474 112.528 219.16C112.544 219.212 112.554 219.266 112.56 219.321L112.737 220.296C112.973 221.604 113.216 222.942 113.466 224.311C113.53 224.648 113.594 224.991 113.653 225.34C113.777 226.031 113.905 226.728 114.034 227.43C114.195 228.304 114.356 229.183 114.516 230.078C114.677 230.973 114.838 231.868 115.004 232.758C115.09 233.214 115.17 233.669 115.256 234.125C115.353 234.661 115.454 235.197 115.551 235.77H161.872C156.158 212.031 151.34 192.89 151.34 192.89L107.816 192.96Z" fill="#455A64"/>
<path d="M114.818 198.32C117.137 210.827 119.481 223.333 121.85 235.84H122.493C120.033 223.303 117.498 210.787 114.989 198.266C114.952 198.148 114.802 198.197 114.818 198.32Z" fill="#37474F"/>
<path d="M107.824 192.96C107.824 192.96 107.824 192.987 107.824 193.035C107.824 193.083 107.824 193.067 107.824 193.089C107.824 193.11 107.824 193.174 107.851 193.233V193.33C107.868 193.399 107.881 193.468 107.889 193.539C107.889 193.587 107.889 193.635 107.915 193.689C107.942 193.743 107.958 193.914 107.98 194.043C108.001 194.171 108.06 194.477 108.103 194.734C108.178 195.115 108.253 195.549 108.344 196.042C108.371 196.181 108.398 196.331 108.425 196.487C108.451 196.642 108.5 196.905 108.542 197.125C108.585 197.344 108.628 197.618 108.676 197.88C108.709 198.063 108.746 198.25 108.778 198.443C108.885 199.017 108.993 199.628 109.111 200.282C109.113 200.298 109.113 200.314 109.111 200.33C109.245 201.059 109.384 201.831 109.534 202.651C109.577 202.865 109.614 203.085 109.652 203.305C109.69 203.525 109.738 203.755 109.775 203.98C109.807 204.119 109.829 204.264 109.856 204.409C110.065 205.545 110.284 206.757 110.515 208.032C110.595 208.461 110.67 208.895 110.751 209.335C110.912 210.192 111.072 211.071 111.233 211.977C111.276 212.186 111.314 212.395 111.346 212.61C111.592 213.928 111.841 215.293 112.091 216.705C112.123 216.849 112.144 216.994 112.171 217.139C112.294 217.804 112.418 218.474 112.536 219.16C112.552 219.212 112.562 219.266 112.568 219.32L112.745 220.296C112.984 221.604 113.227 222.942 113.474 224.311C113.538 224.648 113.602 224.991 113.661 225.34C113.79 226.031 113.913 226.728 114.042 227.43C114.203 228.304 114.363 229.183 114.524 230.078C114.685 230.973 114.851 231.868 115.012 232.758C115.098 233.214 115.178 233.669 115.264 234.125C115.36 234.661 115.462 235.197 115.564 235.77H138.826L140.686 216.732L140.751 216.056L140.826 215.327L141.19 211.602L141.506 208.386L143.002 192.96H107.824Z" fill="#263238"/>
<path d="M81.4997 235.84H131.46C131.546 231.241 131.637 226.792 131.75 222.595C131.75 222.494 131.75 222.392 131.75 222.29C131.75 222.29 137.581 218.838 140.722 216.131C141.256 215.692 141.748 215.204 142.191 214.673C144.201 212.111 146.216 202.26 150.386 192.992H89.2824C79.3557 212.256 80.0525 227.736 81.4997 235.84Z" fill="#455A64"/>
<path d="M143.648 213.993C140.673 215.209 137.999 217.08 135.362 218.886C132.623 220.757 130.109 222.922 127.472 224.932C127.37 225.013 127.472 225.179 127.579 225.104C130.355 223.33 133.266 221.77 136.016 219.942C138.765 218.114 141.461 216.442 143.782 214.207C143.873 214.121 143.771 213.939 143.648 213.993Z" fill="#263238"/>
<path d="M144.026 196.803C143.672 198.706 143.206 200.593 142.798 202.485C142.413 204.259 142.128 206.065 141.662 207.845C141.279 209.543 140.416 211.094 139.175 212.315C138.478 212.964 137.712 213.537 136.967 214.127C136.57 214.448 136.136 214.754 135.718 215.081C135.772 214.829 135.82 214.545 135.863 214.314C135.991 213.591 136.109 212.872 136.232 212.17C136.5 210.562 136.768 208.954 137.004 207.346C137.487 204.189 137.932 201 138.612 197.875C138.619 197.849 138.616 197.821 138.602 197.797C138.589 197.774 138.566 197.756 138.54 197.749C138.514 197.742 138.486 197.746 138.462 197.759C138.438 197.773 138.421 197.795 138.414 197.822C137.626 200.92 136.758 203.986 136.077 207.11C135.739 208.638 134.539 216.222 134.469 216.758C134.399 217.294 134.367 217.868 134.351 218.42C134.279 218.984 134.279 219.555 134.351 220.119C134.363 220.144 134.381 220.165 134.405 220.18C134.428 220.195 134.455 220.203 134.482 220.203C134.51 220.203 134.537 220.195 134.56 220.18C134.584 220.165 134.602 220.144 134.614 220.119C134.842 219.595 135.004 219.044 135.096 218.479C135.236 217.939 135.353 217.393 135.45 216.839C135.487 216.646 135.514 216.442 135.541 216.239C136.286 215.783 136.983 215.167 137.685 214.684C138.387 214.202 139.197 213.612 139.909 213.012C141.22 211.901 142.167 210.422 142.627 208.767C143.084 206.985 143.382 205.166 143.517 203.332C143.758 201.188 143.929 199.044 144.23 196.9C144.24 196.712 144.047 196.675 144.026 196.803Z" fill="#263238"/>
<path d="M93.1832 210.053C93.9765 209.64 97.0692 210.375 102.692 209.415C103.793 209.273 104.838 208.848 105.726 208.182C107.194 206.987 108.304 205.063 109.188 203.417C110.249 201.566 111.064 199.584 111.611 197.521C111.638 197.393 111.82 197.457 111.798 197.575C111.589 198.738 111.472 199.901 111.166 201.054C110.862 202.135 110.473 203.19 110.003 204.211C109.151 206.119 108.159 208.166 106.449 209.458C104.654 210.809 102.161 211.066 99.9743 211.216C98.7147 211.302 93.7782 211.168 93.1189 210.466C93.0937 210.435 93.0752 210.4 93.0647 210.362C93.0542 210.324 93.0519 210.284 93.058 210.245C93.0641 210.206 93.0784 210.169 93.1 210.136C93.1216 210.102 93.1499 210.074 93.1832 210.053Z" fill="#263238"/>
<path d="M131.995 120.375C144.183 127.139 189.272 144.441 199.391 138.288C206.933 133.7 205.855 123.853 199.44 117.502C193.86 111.976 152.052 110.421 140.351 110.1C129.229 109.773 120.063 113.728 131.995 120.375Z" fill="#DCAC94"/>
<path d="M161.976 135.635L180.146 110.705C180.146 110.705 148.704 107.645 135.428 108.792C121.588 109.987 118.753 115.401 135.46 123.103C151.915 130.688 161.976 135.635 161.976 135.635Z" fill="#B3E3C4"/>
<path d="M158.909 130.827C159.273 130.184 159.729 129.589 160.147 128.983C160.565 128.377 161.01 127.739 161.439 127.112C162.312 125.847 163.207 124.598 164.119 123.36C165.919 120.873 167.71 118.381 169.554 115.926C170.057 115.251 170.567 114.575 171.092 113.916C171.617 113.257 172.244 112.56 172.791 111.868C172.823 111.82 172.882 111.868 172.855 111.922C172.426 112.549 172.051 113.214 171.628 113.846C171.204 114.479 170.749 115.138 170.299 115.771C169.409 117.025 168.515 118.275 167.619 119.523C165.828 121.956 164.049 124.4 162.205 126.796L160.656 128.801C160.12 129.498 159.611 130.243 159.01 130.891C158.946 130.902 158.882 130.87 158.909 130.827Z" fill="#263238"/>
<path d="M146.757 112.705C146.418 113.424 146.182 114.187 146.055 114.972C146.571 114.366 146.997 113.689 147.32 112.962C147.659 112.243 147.896 111.48 148.022 110.695C147.508 111.302 147.082 111.978 146.757 112.705ZM153.602 124.539C152.884 124.198 152.12 123.961 151.334 123.837C152.568 124.854 154.047 125.53 155.622 125.799C155.013 125.284 154.333 124.859 153.602 124.539ZM134.74 116.049C134.022 115.707 133.258 115.471 132.473 115.347C133.707 116.364 135.185 117.04 136.761 117.309C136.15 116.795 135.47 116.371 134.74 116.049ZM162.162 114.795C161.895 114.046 161.523 113.338 161.058 112.694C161.202 114.28 161.757 115.802 162.666 117.111C162.611 116.318 162.442 115.538 162.162 114.795ZM167.672 123.907C166.924 124.176 166.216 124.547 165.571 125.011C167.157 124.866 168.679 124.312 169.987 123.403C169.195 123.46 168.416 123.63 167.672 123.907Z" fill="white"/>
<path d="M135.458 123.098C151.913 130.682 161.973 135.635 161.973 135.635L167.768 127.659L124.212 112.758C122.963 115.288 126.233 118.847 135.458 123.098Z" fill="#263238"/>
<path d="M173.878 65.4348C170.501 60.7341 161.898 54.1788 153.306 49.1136C149.136 46.6427 136.417 40.8271 134.278 43.8769C132.14 46.9268 135.704 48.9636 135.704 48.9636C135.704 48.9636 129.963 47.3073 128.087 50.5716C126.211 53.8358 131.855 56.816 131.855 56.816C131.855 56.816 125.831 55.5456 124.196 58.96C122.561 62.3743 128.747 64.395 128.747 64.395C128.747 64.395 123.296 62.98 123.124 66.3407C122.92 70.3928 133.265 71.8668 137.735 74.8309C138.754 75.5009 157.353 89.9247 157.353 89.9247L173.878 65.4348Z" fill="#DCAC94"/>
<path d="M128.822 64.4807C136.428 65.5902 139.542 67.3858 145.315 72.3009C145.427 72.3974 145.594 72.2527 145.486 72.1401C140.293 66.8176 136.685 63.9929 128.87 64.1001C128.474 64.1162 128.463 64.4324 128.822 64.4807Z" fill="#263238"/>
<path d="M131.585 56.682C139.383 58.5204 142.798 60.434 149.203 65.1454C149.289 65.2151 149.412 65.065 149.326 64.99C143.43 59.8497 139.769 57.1161 131.735 56.3068C131.376 56.28 131.226 56.6016 131.585 56.682Z" fill="#263238"/>
<path d="M136.345 49.1459C143.763 51.4721 147.601 53.4339 153.229 58.7939C153.256 58.8175 153.291 58.8302 153.327 58.8295C153.363 58.8287 153.397 58.8146 153.423 58.7898C153.449 58.765 153.465 58.7314 153.468 58.6954C153.471 58.6595 153.46 58.6239 153.438 58.5956C148.233 52.5656 143.463 50.1053 136.436 48.9476C135.959 48.8511 135.873 49.0012 136.345 49.1459Z" fill="#263238"/>
<path d="M160.293 94.5557C160.293 94.5557 150.886 92.4814 146.957 90.6643C143.028 88.8473 130.877 76.664 133.359 73.8875C136.575 70.307 144.963 75.9565 148.715 79.2475C148.715 79.2475 156.117 70.9556 163.021 73.7053C169.924 76.455 160.293 94.5557 160.293 94.5557Z" fill="#DCAC94"/>
<path d="M134.562 73.1962C139.842 72.0384 144.483 76.6909 148.364 79.6282C148.419 79.6749 148.484 79.7076 148.554 79.7233C148.624 79.7389 148.697 79.7372 148.766 79.7181C148.836 79.6991 148.899 79.6633 148.951 79.614C149.004 79.5647 149.043 79.5033 149.066 79.4352C152.4 76.171 158.06 72.5316 162.9 73.4481C162.927 73.4511 162.954 73.4445 162.976 73.4294C162.998 73.4144 163.014 73.3919 163.021 73.3661C163.028 73.3402 163.026 73.3127 163.015 73.2884C163.003 73.2642 162.984 73.2448 162.959 73.2337C157.899 71.54 152.052 74.6648 148.627 78.4758C144.698 75.4045 139.836 70.9396 134.546 73.148C134.541 73.1513 134.538 73.156 134.536 73.1614C134.535 73.1668 134.535 73.1725 134.537 73.1779C134.538 73.1832 134.542 73.1878 134.546 73.1911C134.551 73.1944 134.556 73.1962 134.562 73.1962Z" fill="#263238"/>
<path d="M204.666 129.54C204.328 139.955 191.979 139.237 186.645 134.284C174.119 122.669 155.654 98.9669 150.648 84.3555C149.04 79.6548 167.95 58.9974 171.627 62.8351C178.16 69.6423 205.352 108.406 204.666 129.54Z" fill="#DCAC94"/>
<path d="M172.945 119.528C173.867 120.466 174.752 121.426 175.625 122.396C176.499 123.366 177.378 124.336 178.246 125.312L180.825 128.265C181.248 128.758 181.682 129.246 182.122 129.734C182.561 130.221 182.995 130.704 183.435 131.191C182.406 130.376 181.433 129.491 180.524 128.544C179.597 127.616 178.713 126.646 177.844 125.665C176.976 124.684 176.129 123.687 175.314 122.658C174.5 121.629 173.701 120.6 172.945 119.528Z" fill="#263238"/>
<path d="M178.199 125.649C178.639 126.282 179.019 126.898 179.4 127.531C179.582 127.847 179.77 128.163 179.936 128.49C180.116 128.823 180.276 129.166 180.413 129.519C179.813 129.047 179.311 128.462 178.934 127.799C178.739 127.472 178.574 127.13 178.44 126.775C178.301 126.415 178.22 126.035 178.199 125.649Z" fill="#263238"/>
<path d="M155.945 203.23H83.6172C83.6172 203.23 94.6641 134.236 121.314 110.641C124.605 107.725 132.034 108.39 136.858 110.797C138.589 111.66 144.802 120.348 146.576 128.57C148.35 136.793 156.138 202.983 155.945 203.23Z" fill="#B3E3C4"/>
<path d="M112.986 130.543C112.237 130.808 111.529 131.18 110.885 131.647C112.474 131.494 113.996 130.931 115.302 130.012C114.509 130.077 113.729 130.256 112.986 130.543ZM148.169 138.583C148.138 138.602 148.107 138.624 148.078 138.647H148.175C148.175 138.647 148.169 138.577 148.169 138.561V138.583ZM129.377 149.464C128.629 149.732 127.922 150.104 127.276 150.568C128.865 150.415 130.387 149.851 131.693 148.933C130.9 148.991 130.121 149.163 129.377 149.442V149.464ZM119.531 179.405C118.781 179.672 118.073 180.046 117.43 180.514C118.223 180.447 119.003 180.266 119.745 179.978C120.494 179.709 121.202 179.336 121.846 178.869C121.053 178.936 120.273 179.116 119.531 179.405ZM102.984 158.501C102.236 158.769 101.529 159.141 100.883 159.605C102.472 159.452 103.994 158.888 105.3 157.97C104.513 158.042 103.741 158.226 103.006 158.517L102.984 158.501ZM88.148 200.169C87.3989 200.436 86.6914 200.808 86.0469 201.273C87.6371 201.122 89.1598 200.556 90.4635 199.633C89.6765 199.707 88.9041 199.893 88.1694 200.185L88.148 200.169ZM120.088 197.559C119.339 197.826 118.632 198.197 117.987 198.663C119.577 198.511 121.1 197.946 122.404 197.023C121.616 197.095 120.844 197.281 120.11 197.575L120.088 197.559ZM155.673 200.496C155.16 200.598 154.657 200.741 154.167 200.925C153.418 201.193 152.711 201.564 152.066 202.029C152.859 201.961 153.639 201.781 154.382 201.493C154.842 201.32 155.289 201.116 155.722 200.882C155.727 200.78 155.716 200.646 155.695 200.512L155.673 200.496ZM140.724 178.574C139.975 178.84 139.268 179.212 138.623 179.678C140.212 179.525 141.734 178.962 143.04 178.043C142.253 178.113 141.48 178.297 140.746 178.59L140.724 178.574ZM120.437 119.378C120.17 118.629 119.798 117.921 119.332 117.277C119.485 118.866 120.049 120.388 120.967 121.693C120.904 120.9 120.726 120.12 120.437 119.378ZM104.523 200.303C104.257 199.554 103.885 198.846 103.419 198.202C103.575 199.788 104.14 201.306 105.059 202.608C104.993 201.818 104.813 201.041 104.523 200.303ZM101.35 180.155C101.08 179.407 100.705 178.701 100.235 178.059C100.302 178.851 100.483 179.629 100.771 180.369C101.037 181.12 101.411 181.827 101.88 182.47C101.815 181.677 101.636 180.897 101.35 180.155ZM128.863 168.181C128.595 167.432 128.223 166.725 127.758 166.08C127.911 167.669 128.475 169.191 129.393 170.496C129.328 169.703 129.149 168.923 128.863 168.181ZM119.129 142.351C118.86 141.602 118.487 140.894 118.019 140.25C118.171 141.84 118.736 143.363 119.659 144.666C119.594 143.873 119.415 143.093 119.129 142.351ZM132.454 201.311C132.504 201.974 132.639 202.628 132.856 203.257H133.499C133.241 202.555 132.889 201.892 132.454 201.284V201.311ZM152.945 186.303C152.679 185.553 152.305 184.845 151.836 184.202C151.906 184.993 152.086 185.771 152.372 186.512C152.638 187.262 153.012 187.97 153.481 188.613C153.416 187.814 153.235 187.029 152.945 186.281V186.303ZM140.435 127.6C140.167 126.852 139.794 126.146 139.325 125.504C139.396 126.296 139.576 127.073 139.861 127.815C140.123 128.566 140.495 129.274 140.965 129.916C140.9 129.122 140.721 128.343 140.435 127.6ZM134.753 116.049C134.035 115.707 133.272 115.471 132.486 115.347C133.72 116.364 135.198 117.04 136.774 117.309C136.16 116.795 135.476 116.37 134.742 116.049H134.753ZM111.078 170.217C110.361 169.873 109.597 169.635 108.811 169.51C109.418 170.026 110.097 170.452 110.826 170.775C111.545 171.114 112.308 171.351 113.093 171.477C112.486 170.963 111.807 170.538 111.078 170.217ZM92.377 189.058C91.659 188.716 90.8953 188.48 90.1098 188.356C91.3437 189.372 92.8219 190.048 94.3978 190.317C93.7886 189.802 93.1079 189.378 92.377 189.058ZM141.271 193.753C140.553 193.411 139.789 193.175 139.004 193.051C140.238 194.068 141.716 194.744 143.292 195.013C142.681 194.499 142.001 194.075 141.271 193.753ZM139.717 163.871C138.998 163.53 138.235 163.294 137.449 163.169C138.054 163.685 138.731 164.11 139.459 164.429C140.178 164.77 140.941 165.008 141.727 165.136C141.121 164.62 140.444 164.194 139.717 163.871ZM134.742 138.508C134.024 138.166 133.261 137.929 132.475 137.806C133.709 138.822 135.187 139.498 136.763 139.767C136.154 139.252 135.473 138.828 134.742 138.508ZM104.941 145.535C104.598 146.252 104.362 147.016 104.239 147.802C105.253 146.567 105.929 145.089 106.2 143.514C105.686 144.123 105.261 144.804 104.941 145.535ZM128.959 187.171C128.616 187.889 128.378 188.653 128.252 189.438C128.768 188.833 129.194 188.156 129.516 187.428C129.856 186.709 130.092 185.946 130.219 185.161C129.705 185.768 129.281 186.445 128.959 187.171ZM143.651 150.418C143.309 151.138 143.072 151.903 142.949 152.69C143.462 152.082 143.886 151.403 144.208 150.675C144.55 149.957 144.787 149.193 144.91 148.408C144.397 149.014 143.973 149.691 143.651 150.418ZM110.794 189.315C110.452 190.033 110.216 190.797 110.092 191.582C111.106 190.347 111.782 188.87 112.054 187.294C111.54 187.905 111.116 188.586 110.794 189.315ZM91.9697 169.183C91.6278 169.903 91.3914 170.668 91.2675 171.456C91.7809 170.847 92.205 170.168 92.5271 169.44C92.869 168.722 93.1054 167.959 93.2293 167.173C92.7178 167.781 92.2939 168.458 91.9697 169.183ZM117.58 157.927C117.235 158.646 116.999 159.412 116.878 160.2C117.389 159.59 117.813 158.911 118.137 158.184C118.477 157.465 118.713 156.702 118.839 155.917C118.325 156.529 117.901 157.211 117.58 157.943V157.927ZM126.997 128.543C126.659 129.263 126.422 130.026 126.295 130.811C126.811 130.205 127.237 129.528 127.56 128.801C127.9 128.082 128.136 127.319 128.262 126.533C127.747 127.145 127.321 127.828 126.997 128.56V128.543Z" fill="white"/>
<path d="M108.939 205.711C108.939 201.665 110.113 177.212 109.416 169.194C109.18 166.514 118.464 136.535 120.86 126.469C123.111 117.025 118.303 112.855 111.244 121.747C105.375 129.144 90.0344 158.029 86.9363 165.742C83.8382 173.455 80.6115 199.44 80.6329 204.934C80.6544 209.281 108.923 209.71 108.939 205.711Z" fill="#DCAC94"/>
<path d="M112.025 240.53C109.243 241.929 106.992 239.619 106.992 239.619C106.185 240.945 104.939 241.946 103.471 242.449C100.844 243.21 98.4911 239.42 98.4911 239.42C97.3671 240.622 95.906 241.455 94.2996 241.811C91.7107 242.288 88.8002 238.804 88.8002 238.804C87.1576 239.336 85.3783 239.258 83.7886 238.584C79.6132 236.617 78.7824 229.622 78.2089 225.184C77.6353 220.746 80.4869 206.322 80.712 203.771L108.879 201.091C108.879 201.091 117.122 220.285 117.053 225.602C116.978 230.105 115.129 238.954 112.025 240.53Z" fill="#DCAC94"/>
<path d="M107.093 239.512C108.294 234.757 108.031 229.912 108.036 225.04C108.032 225.021 108.021 225.005 108.006 224.993C107.991 224.981 107.972 224.975 107.953 224.975C107.934 224.975 107.916 224.981 107.901 224.993C107.886 225.005 107.875 225.021 107.87 225.04C107.918 229.864 107.007 234.639 106.862 239.458C106.855 239.489 106.861 239.521 106.877 239.547C106.894 239.574 106.92 239.593 106.951 239.6C106.981 239.607 107.014 239.602 107.04 239.585C107.067 239.569 107.086 239.542 107.093 239.512Z" fill="#263238"/>
<path d="M98.8332 239.281C98.9984 238.175 99.0218 237.053 98.9029 235.942C98.8439 234.757 98.7635 233.578 98.667 232.393C98.4776 230.035 98.2275 227.678 97.9166 225.324C97.9166 225.222 97.7397 225.216 97.7505 225.324C97.9381 227.677 98.0882 230.035 98.1739 232.393C98.2222 233.578 98.2543 234.757 98.2811 235.942C98.2325 237.058 98.308 238.176 98.5062 239.276C98.5167 239.311 98.5379 239.341 98.567 239.363C98.596 239.385 98.6313 239.397 98.6678 239.398C98.7042 239.399 98.7398 239.388 98.7696 239.366C98.7993 239.345 98.8216 239.316 98.8332 239.281Z" fill="#263238"/>
<path d="M88.7732 238.702C89.0198 237.775 88.7732 236.644 88.6714 235.695C88.5642 234.623 88.457 233.551 88.3605 232.479C88.1622 230.335 87.9692 228.191 87.8513 226.047C87.8513 225.94 87.6744 225.94 87.6798 226.047C87.7924 228.234 87.8728 230.432 88.0068 232.619C88.0711 233.691 88.1408 234.763 88.2158 235.835C88.2801 236.751 88.2587 237.898 88.666 238.74C88.6875 238.766 88.7572 238.75 88.7732 238.702Z" fill="#263238"/>
<path d="M115.086 157.434L85.8789 157.53C85.8789 157.53 101.836 130.269 110.535 120.187C119.615 109.676 125.666 110.539 122.107 128.602C118.618 146.381 115.086 157.434 115.086 157.434Z" fill="#B3E3C4"/>
<path d="M104.938 145.535C104.596 146.252 104.359 147.016 104.236 147.802C105.251 146.567 105.927 145.089 106.198 143.514C105.683 144.123 105.259 144.804 104.938 145.535ZM109.291 121.704L108.991 122.074C109.369 122.201 109.758 122.292 110.154 122.347C109.885 122.108 109.597 121.893 109.291 121.704ZM99.9536 136.712C99.812 136.335 99.6492 135.966 99.4658 135.608L99.1228 136.144C99.1978 136.412 99.2836 136.68 99.3747 136.932C99.6422 137.682 100.016 138.389 100.484 139.033C100.422 138.227 100.244 137.434 99.9536 136.68V136.712ZM119.126 142.372C118.858 141.623 118.484 140.915 118.017 140.271C118.084 141.065 118.264 141.844 118.553 142.587C118.66 142.86 118.773 143.123 118.89 143.396C118.971 143.064 119.051 142.731 119.137 142.388L119.126 142.372ZM120.434 119.399C120.167 118.65 119.796 117.943 119.33 117.298C119.483 118.887 120.046 120.409 120.965 121.715C120.904 120.914 120.725 120.126 120.434 119.378V119.399ZM91.1578 151.098C90.4189 151.359 89.7191 151.72 89.0781 152.17C90.6633 152.015 92.1812 151.452 93.484 150.535C92.6867 150.603 91.9032 150.786 91.1578 151.077V151.098ZM112.984 130.564C112.234 130.83 111.527 131.202 110.883 131.668C112.472 131.515 113.994 130.952 115.299 130.033C114.507 130.092 113.727 130.263 112.984 130.543V130.564Z" fill="white"/>
<path d="M90.6641 152.824C91.3984 152.744 92.1488 152.765 92.8831 152.755L95.1558 152.712C96.6941 152.68 98.2324 152.674 99.7654 152.68C102.837 152.68 105.908 152.68 108.974 152.738C109.821 152.738 110.662 152.776 111.504 152.814C112.345 152.851 113.278 152.958 114.184 152.996C114.237 152.996 114.227 153.076 114.184 153.082C113.423 153.082 112.662 153.183 111.9 153.21C111.139 153.237 110.341 153.253 109.558 153.258C108.025 153.258 106.492 153.258 104.954 153.258C101.931 153.232 98.9078 153.216 95.8847 153.119L93.3548 153.033C92.4758 153.007 91.5699 153.033 90.6748 152.915C90.6266 152.899 90.6158 152.83 90.6641 152.824Z" fill="#263238"/>
<path d="M118.993 143.889C119.62 142.94 120.059 141.879 120.285 140.764C120.285 140.764 120.253 140.737 120.248 140.764C119.934 141.723 119.539 142.654 119.068 143.546L119.342 142.34C119.663 140.877 119.99 139.424 120.242 137.95C120.242 137.95 120.21 137.913 120.205 137.95C119.47 140.448 118.849 142.989 118.173 145.508C117.498 148.027 116.812 150.616 116.142 153.173C115.772 154.572 115.402 155.965 115.07 157.364C114.593 157.407 114.223 157.391 113.799 157.429C113.687 157.429 113.676 157.632 113.799 157.643C114.335 157.685 114.873 157.676 115.407 157.616C116.849 153.108 117.953 148.499 118.993 143.889Z" fill="#263238"/>
<path d="M119.48 114.516C121.528 118.305 124.524 121.498 128.174 123.784C129.919 124.937 131.923 125.637 134.006 125.821C135.089 125.931 136.18 125.701 137.125 125.161C138.002 124.525 138.699 123.672 139.146 122.685C139.689 121.567 140.063 120.375 140.256 119.147C140.496 117.758 140.638 116.354 140.679 114.945C140.679 114.892 140.759 114.902 140.754 114.945C140.717 116.28 140.786 117.625 140.647 118.944C140.548 120.116 140.3 121.271 139.907 122.38C139.53 123.429 138.935 124.386 138.16 125.188C137.345 125.976 136.274 126.444 135.142 126.507C132.923 126.614 130.722 126.066 128.812 124.931C126.879 123.856 125.125 122.487 123.613 120.873C121.865 119.012 120.432 116.88 119.368 114.559C119.361 114.551 119.356 114.542 119.353 114.532C119.351 114.522 119.351 114.511 119.353 114.501C119.356 114.491 119.361 114.482 119.368 114.474C119.375 114.466 119.383 114.46 119.393 114.457C119.403 114.453 119.413 114.452 119.423 114.453C119.434 114.454 119.444 114.458 119.452 114.464C119.461 114.47 119.468 114.477 119.473 114.487C119.478 114.496 119.48 114.506 119.48 114.516Z" fill="#263238"/>
<path d="M135.84 122.862C131.713 124.014 124.305 117.936 121.271 112.887C121.068 112.538 121.459 108.792 121.722 104.209C121.866 101.427 121.968 98.313 121.856 95.4937C121.829 94.9148 139.806 99.1009 139.806 99.1009C139.806 99.1009 138.295 105.11 138.525 110.051C138.545 110.442 138.601 110.829 138.691 111.209C138.691 111.263 138.718 111.327 138.729 111.402C139.174 113.6 139.828 121.747 135.84 122.862Z" fill="#DCAC94"/>
<path d="M136.904 111.568C137.514 111.564 138.121 111.508 138.721 111.402C138.715 111.337 138.704 111.273 138.689 111.209C138.596 110.83 138.54 110.442 138.523 110.052C138.298 105.115 139.799 99.1011 139.799 99.1011C139.799 99.1011 125.209 95.7028 122.336 95.4509C123.017 98.7044 126.41 111.761 136.904 111.568Z" fill="#263238"/>
<path d="M123.149 70.8269C119.933 76.5836 119.3 95.097 122.817 100.023C127.919 107.162 138.205 109.982 144.76 103.405C151.112 97.0159 151.503 72.8959 147.403 68.2166C141.335 61.329 127.914 62.326 123.149 70.8269Z" fill="#DCAC94"/>
<path d="M144.432 72.821C143.672 73.7444 142.69 74.4585 141.578 74.8957C140.465 75.3328 139.259 75.4784 138.075 75.3188C135.727 74.9811 133.374 73.4106 132.495 71.1541C132.487 71.1428 132.476 71.1344 132.463 71.1304C132.45 71.1263 132.436 71.1269 132.424 71.1319C132.411 71.1369 132.401 71.1462 132.394 71.158C132.388 71.1698 132.385 71.1836 132.388 71.197C133.331 73.6036 135.336 75.5654 137.989 75.8816C139.247 76.0083 140.517 75.8027 141.671 75.2854C142.825 74.7681 143.823 73.9572 144.566 72.9336C144.63 72.8425 144.501 72.7353 144.432 72.821Z" fill="#263238"/>
<path d="M137.467 57.8236C134.552 57.0411 131.357 58.4454 129.631 60.8413C128.636 62.2873 128.024 63.9617 127.852 65.7082C127.855 65.7202 127.863 65.7307 127.873 65.7381C127.883 65.7456 127.895 65.7496 127.908 65.7496C127.92 65.7496 127.933 65.7456 127.943 65.7381C127.953 65.7307 127.96 65.7202 127.964 65.7082C128.463 62.9585 130.183 60.1767 132.74 58.9224C133.904 58.3024 135.232 58.0611 136.54 58.2321C137.848 58.4031 139.069 58.978 140.035 59.8765C141.102 60.881 141.794 62.2199 141.997 63.6714C142.005 63.7007 142.024 63.7259 142.05 63.7426C142.075 63.7593 142.106 63.7664 142.136 63.7625C142.167 63.7586 142.194 63.7441 142.215 63.7215C142.236 63.6989 142.248 63.6698 142.249 63.6392C142.145 62.2963 141.631 61.0178 140.775 59.9774C139.92 58.9369 138.765 58.185 137.467 57.8236Z" fill="#263238"/>
<path d="M159.388 64.5505C158.728 62.6643 157.419 61.0741 155.695 60.0642C153.31 58.6492 150.651 58.9172 148.014 59.2334C148.002 59.2372 147.992 59.2447 147.984 59.2548C147.977 59.2649 147.973 59.2771 147.973 59.2897C147.973 59.3023 147.977 59.3145 147.984 59.3246C147.992 59.3348 148.002 59.3422 148.014 59.346C150.26 59.0833 152.554 58.944 154.644 59.9677C156.373 60.8009 157.761 62.2059 158.573 63.9449C159.351 65.7344 159.458 67.7442 158.876 69.6065C158.293 71.4687 157.059 73.0589 155.4 74.086C154.429 74.6525 153.352 75.0142 152.236 75.1487C151.119 75.2833 149.987 75.188 148.909 74.8685C148.829 74.8685 148.764 74.9704 148.856 74.9972C150.314 75.49 151.881 75.5666 153.381 75.2186C154.881 74.8706 156.254 74.1117 157.346 73.027C158.439 71.9422 159.208 70.5746 159.566 69.0774C159.925 67.5802 159.86 66.0126 159.377 64.5505H159.388Z" fill="#263238"/>
<path d="M122.105 73.314C122.105 73.314 122.427 67.6592 123.89 65.928C125.354 64.1967 128.591 63.784 128.591 63.784C128.591 63.784 130.478 58.9975 135.023 58.6759C139.118 58.3864 141.895 61.9991 141.895 61.9991C141.895 61.9991 147.555 56.3657 154.035 59.5549C160.188 62.5833 159.395 71.9472 153.472 74.9488C149.291 77.05 143.529 73.4105 143.529 73.4105C142.993 73.4909 137.403 76.9642 133.083 72.0008C133.083 72.0008 129.25 75.0024 127.037 72.9067C127.031 72.896 124.105 74.3217 122.105 73.314Z" fill="#263238"/>
<path opacity="0.2" d="M126.738 66.7588C126.54 69.5567 125.896 77.5217 124.878 79.269C123.86 81.0164 121.432 85.5885 120.445 85.9101C120.553 79.8908 121.517 73.7321 123.125 70.827C124.031 69.2326 125.262 67.8465 126.738 66.7588Z" fill="#263238"/>
<path d="M123.023 85.8081C123.023 85.8081 120.118 79.2314 117.208 80.1587C114.297 81.086 115.691 90.064 118.548 91.8167C118.899 92.0635 119.297 92.2374 119.717 92.3279C120.137 92.4185 120.571 92.424 120.993 92.344C121.415 92.2641 121.817 92.1003 122.175 91.8625C122.533 91.6246 122.84 91.3174 123.077 90.9591L123.023 85.8081Z" fill="#DCAC94"/>
<path d="M117.675 82.7209C117.626 82.7209 117.6 82.7745 117.643 82.8013C119.626 84.0985 120.371 86.3282 120.757 88.5633C120.274 87.6361 119.486 87.025 118.264 87.5771C118.2 87.6093 118.264 87.7057 118.302 87.7057C118.703 87.6572 119.109 87.7343 119.464 87.9263C119.819 88.1183 120.106 88.4158 120.285 88.7777C120.582 89.3901 120.811 90.0337 120.966 90.6966C121.03 90.9057 121.395 90.8735 121.368 90.6377C121.37 90.6199 121.37 90.6018 121.368 90.5841C121.957 87.8558 120.601 83.5785 117.675 82.7209Z" fill="#263238"/>
<path d="M135.932 85.4919C135.932 85.4436 135.83 85.5455 135.83 85.5991C135.83 86.8479 135.605 88.2791 134.458 88.6489C134.426 88.6489 134.426 88.7186 134.458 88.7186C135.851 88.5739 136.146 86.6764 135.932 85.4919Z" fill="#263238"/>
<path d="M134.863 84.1519C132.864 83.9268 132.553 87.9415 134.407 88.1505C136.262 88.3595 136.541 84.3395 134.863 84.1519Z" fill="#263238"/>
<path d="M143.752 86.0225C143.752 85.9743 143.849 86.0868 143.843 86.1351C143.704 87.3786 143.758 88.8151 144.851 89.3511C144.889 89.3511 144.878 89.4261 144.851 89.4154C143.479 89.0938 143.425 87.1749 143.752 86.0225Z" fill="#263238"/>
<path d="M144.964 84.8059C146.98 84.8059 146.824 88.8366 144.964 88.8313C143.104 88.8259 143.276 84.8059 144.964 84.8059Z" fill="#263238"/>
<path d="M132.865 81.6542C133.337 81.3433 133.825 81.1182 134.323 80.8716C134.796 80.517 135.372 80.3286 135.963 80.3356C136.147 80.3767 136.312 80.4771 136.434 80.6215C136.555 80.7658 136.625 80.946 136.633 81.1343C136.633 81.9383 136.022 82.4743 135.358 82.8548C134.702 83.2607 133.918 83.4078 133.16 83.2676C132.995 83.2218 132.846 83.1306 132.731 83.0043C132.615 82.8779 132.538 82.7216 132.507 82.5533C132.476 82.3849 132.494 82.2112 132.557 82.0522C132.62 81.8932 132.727 81.7553 132.865 81.6542Z" fill="#263238"/>
<path d="M147.459 83.2516C147.045 82.8847 146.612 82.5395 146.162 82.2171C145.757 81.792 145.224 81.5114 144.645 81.4185C144.456 81.4254 144.276 81.4943 144.13 81.6145C143.985 81.7346 143.883 81.8993 143.841 82.0831C143.712 82.8764 144.205 83.5089 144.79 84.002C145.361 84.5196 146.104 84.8062 146.875 84.806C147.051 84.7969 147.22 84.7366 147.363 84.6325C147.505 84.5284 147.614 84.3851 147.676 84.2201C147.738 84.055 147.75 83.8755 147.712 83.7035C147.673 83.5315 147.585 83.3744 147.459 83.2516Z" fill="#263238"/>
<path d="M136.377 95.215C137.985 94.679 140.011 95.0489 141.287 95.3008C141.432 95.3008 141.582 95.0113 141.614 94.8827C141.614 94.8345 141.721 92.2456 141.721 92.2456C142.054 92.4439 143.763 93.3605 143.769 92.862C143.812 88.7509 143.86 84.1788 143.035 80.0784C143.035 80.0485 143.023 80.0199 143.002 79.9988C142.98 79.9777 142.952 79.9658 142.922 79.9658C142.892 79.9658 142.863 79.9777 142.842 79.9988C142.821 80.0199 142.809 80.0485 142.809 80.0784C142.611 84.0287 143.11 87.9897 142.97 91.9561C142.365 91.6207 141.716 91.3734 141.041 91.2218C140.901 91.2486 141.073 94.0144 140.992 94.4378C140.992 94.4378 138.537 93.5052 136.393 94.6683C135.841 94.9738 135.611 95.4616 136.377 95.215Z" fill="#263238"/>
<path d="M133.73 96.8766C134.008 97.1875 134.266 97.6002 134.721 97.6699C135.181 97.6919 135.639 97.6152 136.067 97.4448C136.076 97.4403 136.086 97.4393 136.096 97.4419C136.106 97.4445 136.115 97.4506 136.121 97.459C136.126 97.4674 136.129 97.4776 136.128 97.4878C136.127 97.498 136.122 97.5074 136.115 97.5145C135.92 97.7399 135.667 97.9086 135.384 98.0029C135.101 98.0972 134.798 98.1137 134.507 98.0505C134.259 97.9693 134.042 97.8164 133.881 97.6112C133.721 97.406 133.625 97.1578 133.606 96.8981C133.596 96.8552 133.692 96.8338 133.73 96.8766Z" fill="#263238"/>
<path d="M128.153 82.6298C126.453 82.6298 127.365 79.4138 127.724 78.3043C127.973 77.1187 128.116 75.9133 128.153 74.7024C128.189 75.9142 128.338 77.1201 128.597 78.3043C128.951 79.4192 129.862 82.6298 128.153 82.6298Z" fill="white"/>
<path d="M149.422 91.3128C149.556 89.8388 149.658 88.3702 149.722 86.8962C149.786 85.4222 149.835 83.9535 149.824 82.4795C149.813 81.0055 149.792 79.5422 149.722 78.0682C149.722 77.3339 149.647 76.5996 149.588 75.8653C149.529 75.131 149.459 74.3913 149.422 73.6516C149.753 75.0963 149.991 76.5608 150.135 78.0361C150.29 79.5139 150.365 80.999 150.36 82.4849C150.36 83.9689 150.285 85.4519 150.135 86.9283C150.054 87.6626 149.963 88.397 149.856 89.1313C149.749 89.8656 149.604 90.5839 149.422 91.3128Z" fill="#263238"/>
<path d="M116.73 241.988C116.768 242.208 116.811 242.427 116.854 242.652C116.816 242.433 116.773 242.208 116.736 241.988H116.73Z" fill="#EBEBEB"/>
</svg>
