<svg width="21" height="20" viewBox="0 0 21 20" fill="none" xmlns="http://www.w3.org/2000/svg">
<path d="M19.0383 4.82018L13.2783 0.790182C11.7083 -0.309818 9.29828 -0.249818 7.78828 0.920182L2.77828 4.83018C1.77828 5.61018 0.988281 7.21018 0.988281 8.47018V15.3702C0.988281 17.9202 3.05828 20.0002 5.60828 20.0002H16.3883C18.9383 20.0002 21.0083 17.9302 21.0083 15.3802V8.60018C21.0083 7.25018 20.1383 5.59018 19.0383 4.82018ZM11.7483 16.0002C11.7483 16.4102 11.4083 16.7502 10.9983 16.7502C10.5883 16.7502 10.2483 16.4102 10.2483 16.0002V13.0002C10.2483 12.5902 10.5883 12.2502 10.9983 12.2502C11.4083 12.2502 11.7483 12.5902 11.7483 13.0002V16.0002Z" fill="#237642"/>
</svg>
