<svg width="24" height="24" viewBox="0 0 24 24" fill="none" xmlns="http://www.w3.org/2000/svg">
<path d="M9.33984 3.63135C10.538 2.70325 12.5149 2.6535 13.7617 3.52686L13.7627 3.52783L19.5225 7.55713C19.9271 7.84036 20.3323 8.32468 20.6377 8.90967C20.943 9.49454 21.1084 10.1039 21.1084 10.6001V17.3804C21.1083 19.4331 19.4414 21.0999 17.3887 21.1001H6.6084C4.55813 21.1001 2.8889 19.4259 2.88867 17.3706V10.4702C2.88867 10.0122 3.03671 9.43378 3.31543 8.86768C3.59392 8.30205 3.96443 7.82628 4.33203 7.53955L9.33887 3.63037L9.33984 3.63135ZM11.998 13.3501C11.0911 13.3502 10.3486 14.0935 10.3486 15.0005V18.0005C10.3488 18.9073 11.0912 19.6498 11.998 19.6499C12.905 19.6499 13.6483 18.9074 13.6484 18.0005V15.0005C13.6484 14.0934 12.9051 13.3501 11.998 13.3501Z" stroke="#868686" stroke-width="1.8"/>
</svg>
